<svg xmlns="http://www.w3.org/2000/svg" version="1.1" xmlns:xlink="http://www.w3.org/1999/xlink" xmlns:svgjs="http://svgjs.dev/svgjs" width="60" height="60"><svg width="60" height="60" viewBox="0 0 60 60" fill="none" xmlns="http://www.w3.org/2000/svg">
<g clip-path="url(#clip0_2_60)">
<path d="M60 0H0V60H60V0Z" fill="#1A1A1E"></path>
<path d="M22.7807 21.085C22.156 20.4603 22.156 19.4474 22.7807 18.8227L25.9208 15.6827C28.1643 13.4391 31.8357 13.4391 34.0792 15.6827L37.2193 18.8227C37.844 19.4474 37.844 20.4603 37.2193 21.085L31.1311 27.1731C30.5064 27.7979 29.4936 27.7979 28.8689 27.1731L22.7807 21.085ZM27.1732 28.8688L21.085 22.7807C20.4603 22.156 19.4474 22.156 18.8227 22.7807L15.6826 25.9208C13.4391 28.1643 13.4391 31.8357 15.6826 34.0792L18.8227 37.2192C19.4474 37.8439 20.4603 37.8439 21.085 37.2192L27.1732 31.1311C27.7979 30.5064 27.7979 29.4936 27.1732 28.8688ZM44.3174 25.9208L41.1773 22.7807C40.5526 22.156 39.5397 22.156 38.915 22.7807L32.8268 28.8688C32.2021 29.4936 32.2021 30.5064 32.8268 31.1311L38.915 37.2192C39.5397 37.8439 40.5526 37.8439 41.1773 37.2192L44.3174 34.0792C46.5609 31.8357 46.5609 28.1644 44.3174 25.9208ZM31.1311 32.8268C30.5064 32.2021 29.4936 32.2021 28.8689 32.8268L22.7807 38.9149C22.156 39.5396 22.156 40.5525 22.7807 41.1772L25.9208 44.3173C28.1643 46.5609 31.8357 46.5609 34.0792 44.3173L37.2193 41.1772C37.844 40.5525 37.844 39.5396 37.2193 38.9149L31.1311 32.8268Z" fill="#FAFAFA"></path>
</g>
<defs>
<clipPath id="SvgjsClipPath1001">
<rect width="60" height="60" fill="white"></rect>
</clipPath>
</defs>
</svg><style>@media (prefers-color-scheme: light) { :root { filter: none; } }
@media (prefers-color-scheme: dark) { :root { filter: none; } }
</style></svg>